<svg width="24" height="24" viewBox="0 0 24 24" fill="none" xmlns="http://www.w3.org/2000/svg">
<path d="M19.6667 0C20.8159 0 21.9181 0.456546 22.7308 1.2692C23.5435 2.08186 24 3.18406 24 4.33333V13.5053C23.9997 14.3005 23.6836 15.063 23.1213 15.6253L15.6267 23.1213C15.3481 23.3999 15.0174 23.6209 14.6534 23.7716C14.2894 23.9224 13.8993 24 13.5053 24H4.33333C3.18406 24 2.08186 23.5435 1.2692 22.7308C0.456546 21.9181 0 20.8159 0 19.6667V4.33333C0 3.18406 0.456546 2.08186 1.2692 1.2692C2.08186 0.456546 3.18406 0 4.33333 0H19.6667ZM19.6667 2H4.33333C3.71449 2 3.121 2.24583 2.68342 2.68342C2.24583 3.121 2 3.71449 2 4.33333V19.6667C2 20.9547 3.04533 22 4.33333 22H13.3333V17.9147C13.0359 17.9592 12.7364 17.9886 12.436 18.0027L12 18.0133C10.2472 18.0279 8.53332 17.4966 7.096 16.4933C6.87781 16.3423 6.72855 16.1109 6.68104 15.8498C6.65752 15.7205 6.65968 15.5879 6.68741 15.4595C6.71515 15.3311 6.7679 15.2094 6.84267 15.1013C6.91743 14.9933 7.01275 14.901 7.12316 14.8299C7.23358 14.7587 7.35694 14.7099 7.4862 14.6864C7.74725 14.6389 8.01648 14.697 8.23467 14.848C9.36 15.6267 10.608 16.0133 12 16.0133C12.616 16.0133 13.204 15.9373 13.7653 15.7853C14.0979 15.0943 14.6081 14.504 15.2436 14.0748C15.8792 13.6456 16.6174 13.3929 17.3827 13.3427L17.6667 13.3333H22V4.33333C22 3.71449 21.7542 3.121 21.3166 2.68342C20.879 2.24583 20.2855 2 19.6667 2ZM20.5853 15.3333H17.668C17.0822 15.3334 16.5179 15.5538 16.0871 15.9507C15.6563 16.3477 15.3905 16.8922 15.3427 17.476L15.3347 17.6667L15.3333 20.5853L20.5853 15.3333ZM8 6.33467C8.22275 6.32836 8.4445 6.3668 8.65214 6.44768C8.85977 6.52857 9.04908 6.65028 9.20886 6.80561C9.36864 6.96093 9.49566 7.14672 9.58239 7.35199C9.66912 7.55726 9.7138 7.77783 9.7138 8.00067C9.7138 8.2235 9.66912 8.44408 9.58239 8.64934C9.49566 8.85461 9.36864 9.0404 9.20886 9.19573C9.04908 9.35105 8.85977 9.47276 8.65214 9.55365C8.4445 9.63454 8.22275 9.67297 8 9.66667C7.55797 9.66667 7.13405 9.49107 6.82149 9.17851C6.50893 8.86595 6.33333 8.44203 6.33333 8C6.33333 7.55797 6.50893 7.13405 6.82149 6.82149C7.13405 6.50893 7.55797 6.33467 8 6.33467ZM16 6.33333C16.2227 6.32703 16.4445 6.36546 16.6521 6.44635C16.8598 6.52724 17.0491 6.64895 17.2089 6.80427C17.3686 6.9596 17.4957 7.14539 17.5824 7.35066C17.6691 7.55592 17.7138 7.7765 17.7138 7.99933C17.7138 8.22217 17.6691 8.44275 17.5824 8.64801C17.4957 8.85328 17.3686 9.03907 17.2089 9.19439C17.0491 9.34972 16.8598 9.47143 16.6521 9.55232C16.4445 9.63321 16.2227 9.67163 16 9.66533C15.5663 9.65306 15.1545 9.47216 14.8521 9.16106C14.5497 8.84996 14.3805 8.4332 14.3805 7.99933C14.3805 7.56547 14.5497 7.1487 14.8521 6.83761C15.1545 6.52651 15.5663 6.3456 16 6.33333Z" fill="#333333"/>
</svg>
