<svg width="24" height="24" viewBox="0 0 24 24" fill="none" xmlns="http://www.w3.org/2000/svg">
<path fill-rule="evenodd" clip-rule="evenodd" d="M4.14286 1H19.8571C20.6907 1 21.4901 1.33112 22.0795 1.92052C22.6689 2.50992 23 3.30932 23 4.14286V19.8571C23 20.6907 22.6689 21.4901 22.0795 22.0795C21.4901 22.6689 20.6907 23 19.8571 23H4.14286C3.30932 23 2.50992 22.6689 1.92052 22.0795C1.33112 21.4901 1 20.6907 1 19.8571V4.14286C1 3.30932 1.33112 2.50992 1.92052 1.92052C2.50992 1.33112 3.30932 1 4.14286 1Z" stroke="#333333" stroke-width="2" stroke-linecap="round" stroke-linejoin="round"/>
<path d="M23 16.7143L18.2857 12L13.5714 16.6907M19.8571 23L5.71429 8.85718L1 13.5715" stroke="#333333" stroke-width="2" stroke-linecap="round" stroke-linejoin="round"/>
<path d="M16.5831 8.07132C17.451 8.07132 18.1546 7.36777 18.1546 6.4999C18.1546 5.63202 17.451 4.92847 16.5831 4.92847C15.7153 4.92847 15.0117 5.63202 15.0117 6.4999C15.0117 7.36777 15.7153 8.07132 16.5831 8.07132Z" fill="#333333"/>
</svg>
