<svg width="22" height="24" viewBox="0 0 22 24" fill="none" xmlns="http://www.w3.org/2000/svg">
<path opacity="0.2" d="M21.2761 4.64424L19.1998 6.72046L15.2798 2.80042L17.356 0.724195C17.461 0.619253 17.6034 0.560303 17.7519 0.560303C17.9003 0.560303 18.0427 0.619253 18.1477 0.724195L21.2761 3.85043C21.3283 3.90247 21.3698 3.96432 21.3981 4.03243C21.4264 4.10054 21.441 4.17358 21.441 4.24734C21.441 4.3211 21.4264 4.39413 21.3981 4.46224C21.3698 4.53036 21.3283 4.59221 21.2761 4.64424Z" fill="#333333"/>
<path d="M21.6719 3.45647L18.5442 0.328135C18.4402 0.224105 18.3167 0.141582 18.1808 0.0852804C18.0449 0.0289785 17.8993 0 17.7522 0C17.6051 0 17.4594 0.0289785 17.3235 0.0852804C17.1876 0.141582 17.0641 0.224105 16.9601 0.328135L8.32831 8.96064C8.22385 9.06426 8.14104 9.18762 8.08468 9.32353C8.02832 9.45945 7.99954 9.60521 8.00001 9.75235V12.8807C8.00001 13.1777 8.11801 13.4626 8.32805 13.6727C8.53809 13.8827 8.82297 14.0007 9.12002 14.0007H12.2484C12.3955 14.0012 12.5413 13.9724 12.6772 13.916C12.8131 13.8597 12.9364 13.7768 13.0401 13.6724L21.6719 5.04059C21.7759 4.93658 21.8584 4.8131 21.9147 4.6772C21.971 4.5413 22 4.39563 22 4.24853C22 4.10143 21.971 3.95576 21.9147 3.81986C21.8584 3.68396 21.7759 3.56048 21.6719 3.45647ZM9.35172 9.52064L15.2801 3.59227L16.4484 4.76059L10.52 10.6883L9.35172 9.52064ZM9.12002 10.8724L11.1283 12.8807H9.12002V10.8724ZM12.4801 12.649L11.3117 11.4807L17.2401 5.5523L18.4084 6.72061L12.4801 12.649ZM19.2001 5.9289L16.0718 2.80056L17.7518 1.12054L20.8802 4.24818L19.2001 5.9289Z" fill="#333333"/>
<path d="M1.00732 14.5005C4.15121 13.1842 10.4651 12.027 10.5695 17.929C10.6738 23.831 16.4802 18.3164 19.3703 14.8214" stroke="#333333" stroke-linecap="round"/>
</svg>
