<svg width="12" height="8" viewBox="0 0 12 8" fill="none" xmlns="http://www.w3.org/2000/svg">
<path opacity="0.2" d="M6.38308 2.99893C6.38308 3.51277 6.23762 4.01508 5.9651 4.44233C5.69259 4.86957 5.30525 5.20257 4.85206 5.39921C4.39888 5.59585 3.90021 5.6473 3.41912 5.54705C2.93802 5.44681 2.49611 5.19937 2.14926 4.83602C1.80241 4.47268 1.5662 4.00975 1.47051 3.50578C1.37481 3.00181 1.42393 2.47943 1.61164 2.0047C1.79935 1.52997 2.11724 1.12421 2.52509 0.838729C2.93294 0.553252 3.41245 0.400879 3.90297 0.400879C4.56073 0.400879 5.19156 0.674601 5.65667 1.16183C6.12178 1.64906 6.38308 2.30988 6.38308 2.99893Z" fill="#666666"/>
<path d="M5.4888 5.49309C6.00018 5.13645 6.38843 4.61689 6.59613 4.01123C6.80382 3.40557 6.81994 2.74597 6.64211 2.12997C6.46427 1.51397 6.10191 0.974271 5.60862 0.590688C5.11533 0.207105 4.5173 0 3.90296 0C3.28862 0 2.69059 0.207105 2.1973 0.590688C1.70401 0.974271 1.34165 1.51397 1.16381 2.12997C0.985976 2.74597 1.0021 3.40557 1.20979 4.01123C1.41749 4.61689 1.80574 5.13645 2.31712 5.49309C1.39208 5.85024 0.602075 6.51114 0.0649851 7.37717C0.0367574 7.42112 0.0171505 7.47051 0.00730393 7.52247C-0.00254263 7.57442 -0.00243239 7.62791 0.00762824 7.67982C0.0176889 7.73173 0.0374992 7.78103 0.0659077 7.82485C0.0943163 7.86868 0.130756 7.90614 0.17311 7.93508C0.215463 7.96402 0.262885 7.98385 0.312619 7.99342C0.362353 8.00299 0.413406 8.00211 0.462812 7.99083C0.512218 7.97955 0.558991 7.95809 0.600412 7.92771C0.641833 7.89733 0.677075 7.85862 0.704091 7.81385C1.05054 7.25566 1.52461 6.79697 2.08324 6.47944C2.64188 6.16191 3.26739 5.99559 3.90296 5.99559C4.53853 5.99559 5.16404 6.16191 5.72268 6.47944C6.28131 6.79697 6.75538 7.25566 7.10183 7.81385C7.15779 7.90098 7.24424 7.96154 7.34249 7.98243C7.44073 8.00332 7.54288 7.98287 7.62685 7.9255C7.71081 7.86813 7.76985 7.77845 7.7912 7.67584C7.81255 7.57323 7.7945 7.46595 7.74094 7.37717C7.20385 6.51114 6.41384 5.85024 5.4888 5.49309ZM1.8044 2.99896C1.8044 2.56417 1.92748 2.13914 2.15807 1.77763C2.38867 1.41611 2.71642 1.13434 3.09988 0.967955C3.48334 0.801567 3.90529 0.758033 4.31237 0.842857C4.71945 0.92768 5.09338 1.13705 5.38686 1.4445C5.68035 1.75194 5.88022 2.14365 5.96119 2.57009C6.04217 2.99653 6.00061 3.43854 5.84177 3.84024C5.68294 4.24193 5.41396 4.58527 5.06886 4.82682C4.72375 5.06838 4.31802 5.19731 3.90296 5.19731C3.34658 5.19665 2.81317 4.96483 2.41975 4.5527C2.02633 4.14057 1.80503 3.5818 1.8044 2.99896ZM11.8269 7.93026C11.7422 7.98815 11.6389 8.00841 11.5399 7.98658C11.4409 7.96475 11.3542 7.90262 11.2989 7.81385C10.9529 7.25532 10.4789 6.79644 9.92015 6.47904C9.3614 6.16164 8.73569 5.99582 8.10007 5.99671C7.99888 5.99671 7.90183 5.9546 7.83027 5.87964C7.75872 5.80468 7.71852 5.70302 7.71852 5.59701C7.71852 5.491 7.75872 5.38934 7.83027 5.31438C7.90183 5.23942 7.99888 5.19731 8.10007 5.19731C8.40912 5.19701 8.71429 5.1252 8.99377 4.98703C9.27325 4.84885 9.52016 4.64772 9.71683 4.398C9.91351 4.14828 10.0551 3.85614 10.1315 3.54244C10.2079 3.22875 10.2172 2.90125 10.1588 2.58335C10.1004 2.26545 9.97565 1.96499 9.79352 1.70344C9.61139 1.44188 9.37637 1.2257 9.10524 1.07033C8.83411 0.914959 8.53357 0.824237 8.22509 0.804646C7.91661 0.785054 7.60781 0.837077 7.32075 0.956998C7.27394 0.978193 7.22356 0.989346 7.17257 0.989798C7.12158 0.990249 7.07102 0.97999 7.02388 0.959626C6.97674 0.939263 6.93398 0.909208 6.89811 0.871238C6.86225 0.833267 6.83402 0.788152 6.81508 0.738557C6.79614 0.688962 6.78689 0.635894 6.78786 0.582489C6.78883 0.529083 6.80001 0.476424 6.82074 0.427622C6.84147 0.37882 6.87133 0.334865 6.90855 0.298355C6.94577 0.261846 6.98959 0.233521 7.03744 0.215056C7.69441 -0.0594126 8.42514 -0.0692896 9.08866 0.18733C9.75217 0.443949 10.3015 0.948882 10.6306 1.60472C10.9596 2.26056 11.0452 3.02083 10.8708 3.73887C10.6964 4.4569 10.2742 5.08183 9.68592 5.49309C10.611 5.85024 11.401 6.51114 11.938 7.37717C11.9933 7.46596 12.0127 7.5741 11.9918 7.67782C11.971 7.78154 11.9117 7.87234 11.8269 7.93026Z" fill="#666666"/>
</svg>
