<svg width="154" height="115" viewBox="0 0 154 115" fill="none" xmlns="http://www.w3.org/2000/svg">
<path d="M24 33.1562C25.3333 23.9895 32.1 5.35619 48.5 4.15619C70.9 0.156194 110.833 7.48953 128 11.6562C153.6 22.8562 152 64.6562 148 84.1562C143.6 88.5562 101.5 103.99 81 111.156L32 87.1562L24 33.1562Z" fill="#B31312"/>
<path d="M24 33.1562C25.3333 23.9895 32.1 5.35619 48.5 4.15619M24 33.1562L79 25.6562M24 33.1562L32 87.1562L81 111.156M48.5 4.15619C56 2.98953 72.6 5.65619 79 25.6562M48.5 4.15619C70.9 0.156194 110.833 7.48953 128 11.6562C153.6 22.8562 152 64.6562 148 84.1562C143.6 88.5562 101.5 103.99 81 111.156M79 25.6562C82.1667 34.9895 87 65.1562 81 111.156" stroke="#020202" stroke-width="6"/>
<path d="M22 32.2314C23.3333 23.0648 30.1 4.43145 46.5 3.23145C54 2.06478 70.6 4.73145 77 24.7314C80.1667 34.0648 85 63.5 79 109.5L30 86.2315L22 32.2314Z" fill="#656565"/>
<path d="M22 32.2314C23.3333 23.0648 30.1 4.43145 46.5 3.23145C54 2.06478 70.6 4.73145 77 24.7314M22 32.2314L77 24.7314M22 32.2314L30 86.2315L79 109.5C85 63.5 80.1667 34.0648 77 24.7314" stroke="#020202" stroke-width="6"/>
<path d="M3.57185 36.5C3.07205 30.5 53.2385 25.6667 76.0719 24C80.4719 32.4 83.0009 75 81 97C70.5009 98.5 18.0728 111.5 10.0728 105.5C5.07356 96.5 1.57248 39.5 3.57185 36.5Z" fill="white" stroke="#020202" stroke-width="6"/>
<path d="M4 43L47 61.6604L11 107M79 44L62 61L81.5 73" stroke="black" stroke-width="6"/>
<path d="M4 43C20 50.5 52.9 65.2 56.5 64L79.5 42" stroke="black" stroke-width="6"/>
<path d="M44 45.5C46 47 50.4 49.9 52 49.5C53.6 49.1 56.6667 45 58 43" stroke="black" stroke-width="5" stroke-linecap="round"/>
<circle cx="34" cy="42" r="3" fill="black"/>
<circle cx="64" cy="36" r="3" fill="black"/>
</svg>
